<svg width="1440" height="26" viewBox="0 0 1440 26" fill="none" xmlns="http://www.w3.org/2000/svg">
<g opacity="0.25">
<path d="M0 7.41406C34.2864 7.41406 34.2863 19.002 68.5727 19.002C102.859 19.002 102.859 7.41406 137.132 7.41406C171.405 7.41406 171.418 19.002 205.705 19.002C239.991 19.002 239.991 7.41406 274.277 7.41406C308.564 7.41406 308.564 19.002 342.837 19.002C377.11 19.002 377.123 7.41406 411.409 7.41406C445.696 7.41406 445.696 19.002 479.982 19.002C514.268 19.002 514.268 7.41406 548.555 7.41406C582.841 7.41406 582.828 19.002 617.114 19.002C651.4 19.002 651.4 7.41406 685.687 7.41406C719.973 7.41406 719.973 19.002 754.246 19.002C788.519 19.002 788.532 7.41406 822.819 7.41406C857.105 7.41406 857.105 19.002 891.405 19.002C925.705 19.002 925.678 7.41406 959.964 7.41406C994.251 7.41406 994.264 19.002 1028.55 19.002C1062.84 19.002 1062.84 7.41406 1097.11 7.41406C1131.38 7.41406 1131.4 19.002 1165.68 19.002C1199.97 19.002 1199.97 7.41406 1234.27 7.41406C1268.57 7.41406 1268.55 19.002 1302.84 19.002C1337.13 19.002 1337.13 7.41406 1371.41 7.41406C1405.7 7.41406 1405.71 19.002 1440 19.002" fill="black"/>
<path d="M0 7.41406C34.2864 7.41406 34.2863 19.002 68.5727 19.002C102.859 19.002 102.859 7.41406 137.132 7.41406C171.405 7.41406 171.418 19.002 205.705 19.002C239.991 19.002 239.991 7.41406 274.277 7.41406C308.564 7.41406 308.564 19.002 342.837 19.002C377.11 19.002 377.123 7.41406 411.409 7.41406C445.696 7.41406 445.696 19.002 479.982 19.002C514.268 19.002 514.268 7.41406 548.555 7.41406C582.841 7.41406 582.828 19.002 617.114 19.002C651.4 19.002 651.4 7.41406 685.687 7.41406C719.973 7.41406 719.973 19.002 754.246 19.002C788.519 19.002 788.532 7.41406 822.819 7.41406C857.105 7.41406 857.105 19.002 891.405 19.002C925.705 19.002 925.678 7.41406 959.964 7.41406C994.251 7.41406 994.264 19.002 1028.55 19.002C1062.84 19.002 1062.84 7.41406 1097.11 7.41406C1131.38 7.41406 1131.4 19.002 1165.68 19.002C1199.97 19.002 1199.97 7.41406 1234.27 7.41406C1268.57 7.41406 1268.55 19.002 1302.84 19.002C1337.13 19.002 1337.13 7.41406 1371.41 7.41406C1405.7 7.41406 1405.71 19.002 1440 19.002" stroke="black" stroke-width="13" stroke-miterlimit="10"/>
</g>
</svg>
